<mxfile host="65bd71144e">
    <diagram name="Page-1" id="c7558073-3199-34d8-9f00-42111426c3f3">
        <mxGraphModel dx="620" dy="814" grid="1" gridSize="10" guides="1" tooltips="1" connect="1" arrows="1" fold="1" page="1" pageScale="1" pageWidth="826" pageHeight="1169" background="#080808" math="0" shadow="0">
            <root>
                <mxCell id="0"/>
                <mxCell id="1" parent="0"/>
                <mxCell id="cOc1v8Od7rdK0ufrx-xu-103" value="" style="swimlane;startSize=0;rounded=1;shadow=0;glass=0;fillColor=#99CCFF;swimlaneFillColor=#FFF5F6;" parent="1" vertex="1">
                    <mxGeometry x="510" y="70" width="340" height="330" as="geometry"/>
                </mxCell>
                <mxCell id="13" value="CONVERSATIONS/&#10;API" style="whiteSpace=wrap;align=center;verticalAlign=middle;fontStyle=1;strokeWidth=3;fillColor=#dae8fc;strokeColor=#6c8ebf;fontColor=#000000;" parent="1" vertex="1">
                    <mxGeometry x="650" y="90" width="170" height="50" as="geometry"/>
                </mxCell>
                <mxCell id="68" value="" style="edgeStyle=elbowEdgeStyle;elbow=horizontal;strokeColor=#990000;strokeWidth=2;startArrow=classic;startFill=1;exitX=0.5;exitY=0;exitDx=0;exitDy=0;entryX=0;entryY=0.5;entryDx=0;entryDy=0;" parent="1" source="cOc1v8Od7rdK0ufrx-xu-97" target="cOc1v8Od7rdK0ufrx-xu-100" edge="1">
                    <mxGeometry width="100" height="100" relative="1" as="geometry">
                        <mxPoint x="540" y="290" as="sourcePoint"/>
                        <mxPoint x="540" y="489" as="targetPoint"/>
                        <Array as="points">
                            <mxPoint x="540" y="319"/>
                        </Array>
                    </mxGeometry>
                </mxCell>
                <mxCell id="71" value="Check active chats" style="text;spacingTop=-5;align=center" parent="1" vertex="1">
                    <mxGeometry x="238" y="212" width="30" height="30" as="geometry"/>
                </mxCell>
                <mxCell id="81" value="" style="edgeStyle=elbowEdgeStyle;elbow=horizontal;strokeColor=#990000;strokeWidth=2;exitX=0.5;exitY=0;exitDx=0;exitDy=0;startArrow=classic;startFill=1;" parent="1" source="cOc1v8Od7rdK0ufrx-xu-97" target="13" edge="1">
                    <mxGeometry width="100" height="100" relative="1" as="geometry">
                        <mxPoint x="590" y="400" as="sourcePoint"/>
                        <mxPoint x="520" y="630" as="targetPoint"/>
                        <Array as="points">
                            <mxPoint x="540" y="250"/>
                        </Array>
                    </mxGeometry>
                </mxCell>
                <mxCell id="cOc1v8Od7rdK0ufrx-xu-97" value="Broker (Kafka ?)&#10;" style="shape=process;whiteSpace=wrap;align=center;verticalAlign=middle;size=0.05;fontStyle=1;strokeWidth=3;fillColor=#FFCCCC;rotation=90;fontColor=#000000;" parent="1" vertex="1">
                    <mxGeometry x="339" y="210" width="200" height="60" as="geometry"/>
                </mxCell>
                <mxCell id="cOc1v8Od7rdK0ufrx-xu-99" value="TELECOMMUNICATIONS&#10;API" style="whiteSpace=wrap;align=center;verticalAlign=middle;fontStyle=1;strokeWidth=3;fillColor=#fff2cc;strokeColor=#d6b656;fontColor=#000000;" parent="1" vertex="1">
                    <mxGeometry x="620" y="215" width="170" height="50" as="geometry"/>
                </mxCell>
                <mxCell id="cOc1v8Od7rdK0ufrx-xu-100" value="LOGISTICS API" style="whiteSpace=wrap;align=center;verticalAlign=middle;fontStyle=1;strokeWidth=3;fillColor=#ffe6cc;strokeColor=#d79b00;fontColor=#000000;" parent="1" vertex="1">
                    <mxGeometry x="620" y="320" width="170" height="50" as="geometry"/>
                </mxCell>
                <mxCell id="cOc1v8Od7rdK0ufrx-xu-101" value="" style="edgeStyle=elbowEdgeStyle;elbow=horizontal;strokeColor=#990000;strokeWidth=2;exitX=0.5;exitY=0;exitDx=0;exitDy=0;startArrow=classic;startFill=1;entryX=0;entryY=0.5;entryDx=0;entryDy=0;" parent="1" source="cOc1v8Od7rdK0ufrx-xu-97" target="cOc1v8Od7rdK0ufrx-xu-99" edge="1">
                    <mxGeometry width="100" height="100" relative="1" as="geometry">
                        <mxPoint x="461" y="250" as="sourcePoint"/>
                        <mxPoint x="660" y="125" as="targetPoint"/>
                        <Array as="points">
                            <mxPoint x="550" y="260"/>
                        </Array>
                    </mxGeometry>
                </mxCell>
                <mxCell id="cOc1v8Od7rdK0ufrx-xu-102" value="Kubernetes Services" style="swimlane;fillColor=#99CCFF;glass=0;rounded=1;shadow=0;swimlaneFillColor=#F0FDFF;" parent="1" vertex="1">
                    <mxGeometry x="50" y="450" width="760" height="550" as="geometry"/>
                </mxCell>
                <mxCell id="cOc1v8Od7rdK0ufrx-xu-112" value="&lt;p style=&quot;margin: 0px ; margin-top: 4px ; text-align: center ; text-decoration: underline&quot;&gt;&lt;/p&gt;&lt;p style=&quot;margin: 0px ; margin-left: 8px&quot;&gt;&lt;br&gt;&lt;/p&gt;&lt;p style=&quot;margin: 0px ; margin-left: 8px&quot;&gt;Customer Servicer&lt;/p&gt;&lt;p style=&quot;margin: 0px ; margin-left: 8px&quot;&gt;&lt;/p&gt;&lt;div style=&quot;text-align: justify&quot;&gt;&lt;br&gt;&lt;/div&gt;&lt;div style=&quot;text-align: justify&quot;&gt;&amp;nbsp;Roles:&lt;/div&gt;&lt;div style=&quot;text-align: justify&quot;&gt;&lt;span style=&quot;white-space: pre&quot;&gt;&#9;- answer customer&lt;/span&gt;&lt;br&gt;&lt;/div&gt;&lt;div style=&quot;text-align: justify&quot;&gt;&lt;span style=&quot;white-space: pre&quot;&gt;&lt;span style=&quot;white-space: pre&quot;&gt;&#9;- escalate&lt;/span&gt;&lt;br&gt;&lt;/span&gt;&lt;/div&gt;&lt;p&gt;&lt;/p&gt;&lt;p&gt;&lt;/p&gt;" style="verticalAlign=middle;align=center;overflow=fill;fontSize=12;fontFamily=Helvetica;html=1;rounded=1;fontStyle=1;strokeWidth=3;fillColor=#ffe6cc;spacingLeft=2;strokeColor=#d79b00;" parent="cOc1v8Od7rdK0ufrx-xu-102" vertex="1">
                    <mxGeometry x="124" y="303" width="180" height="90" as="geometry"/>
                </mxCell>
                <mxCell id="cOc1v8Od7rdK0ufrx-xu-123" value="" style="rounded=0;whiteSpace=wrap;html=1;shadow=0;glass=0;fontSize=17;fillColor=#99CCFF;" parent="cOc1v8Od7rdK0ufrx-xu-102" vertex="1">
                    <mxGeometry x="70" y="280" width="360" height="190" as="geometry"/>
                </mxCell>
                <mxCell id="96" value="Calls API/s follow flow" style="text;spacingTop=-5;align=center;fontColor=#000000;" vertex="1" parent="cOc1v8Od7rdK0ufrx-xu-102">
                    <mxGeometry x="410" y="140" width="30" height="30" as="geometry"/>
                </mxCell>
                <mxCell id="92" value="" style="edgeStyle=elbowEdgeStyle;elbow=horizontal;strokeColor=#990000;strokeWidth=2;startArrow=classic;startFill=1;exitX=0.5;exitY=0;exitDx=0;exitDy=0;entryX=0.5;entryY=1;entryDx=0;entryDy=0;" parent="1" source="6" target="cOc1v8Od7rdK0ufrx-xu-97" edge="1">
                    <mxGeometry width="100" height="100" relative="1" as="geometry">
                        <mxPoint x="196" y="400" as="sourcePoint"/>
                        <mxPoint x="390" y="245" as="targetPoint"/>
                        <Array as="points">
                            <mxPoint x="185" y="320"/>
                            <mxPoint x="140" y="260"/>
                            <mxPoint x="360" y="320"/>
                            <mxPoint x="250" y="470"/>
                        </Array>
                    </mxGeometry>
                </mxCell>
                <mxCell id="cOc1v8Od7rdK0ufrx-xu-106" value="Why Kafka ?&#10;    - message queue&#10;    - scalable" style="text;spacingTop=-5;align=left;fontSize=17;" parent="1" vertex="1">
                    <mxGeometry x="100" y="20" width="170" height="30" as="geometry"/>
                </mxCell>
                <mxCell id="cOc1v8Od7rdK0ufrx-xu-109" value="" style="endArrow=open;endFill=1;endSize=12;html=1;rounded=0;fontSize=17;entryX=0;entryY=0.5;entryDx=0;entryDy=0;edgeStyle=orthogonalEdgeStyle;" parent="1" target="cOc1v8Od7rdK0ufrx-xu-97" edge="1">
                    <mxGeometry width="160" relative="1" as="geometry">
                        <mxPoint x="70" y="90" as="sourcePoint"/>
                        <mxPoint x="260" y="114.5" as="targetPoint"/>
                        <Array as="points">
                            <mxPoint x="100" y="90"/>
                            <mxPoint x="421" y="90"/>
                        </Array>
                    </mxGeometry>
                </mxCell>
                <mxCell id="cOc1v8Od7rdK0ufrx-xu-110" value="APIs" style="text;align=center;fontStyle=1;verticalAlign=middle;spacingLeft=3;spacingRight=3;strokeColor=none;rotatable=0;points=[[0,0.5],[1,0.5]];portConstraint=eastwest;rounded=1;shadow=0;glass=0;fontSize=17;fillColor=#99CCFF;" parent="1" vertex="1">
                    <mxGeometry x="510" y="40" width="340" height="30" as="geometry"/>
                </mxCell>
                <mxCell id="cOc1v8Od7rdK0ufrx-xu-118" value="&lt;p style=&quot;margin: 0px ; margin-top: 4px ; text-align: center ; text-decoration: underline&quot;&gt;&lt;/p&gt;&lt;p style=&quot;margin: 0px ; margin-left: 8px&quot;&gt;&lt;br&gt;&lt;/p&gt;&lt;p style=&quot;margin: 0px ; margin-left: 8px&quot;&gt;Customer Servicer&lt;/p&gt;&lt;p style=&quot;margin: 0px ; margin-left: 8px&quot;&gt;&lt;/p&gt;&lt;div style=&quot;text-align: justify&quot;&gt;&lt;br&gt;&lt;/div&gt;&lt;div style=&quot;text-align: justify&quot;&gt;&amp;nbsp;Roles:&lt;/div&gt;&lt;div style=&quot;text-align: justify&quot;&gt;&lt;span style=&quot;white-space: pre&quot;&gt;&#9;- answer customer&lt;/span&gt;&lt;br&gt;&lt;/div&gt;&lt;div style=&quot;text-align: justify&quot;&gt;&lt;span style=&quot;white-space: pre&quot;&gt;&lt;span style=&quot;white-space: pre&quot;&gt;&#9;- escalate&lt;/span&gt;&lt;br&gt;&lt;/span&gt;&lt;/div&gt;&lt;p&gt;&lt;/p&gt;&lt;p&gt;&lt;/p&gt;" style="verticalAlign=middle;align=center;overflow=fill;fontSize=12;fontFamily=Helvetica;html=1;rounded=1;fontStyle=1;strokeWidth=3;fillColor=#ffe6cc;spacingLeft=2;strokeColor=#d79b00;fontColor=none;noLabel=1;" parent="1" vertex="1">
                    <mxGeometry x="184" y="763" width="180" height="90" as="geometry"/>
                </mxCell>
                <mxCell id="cOc1v8Od7rdK0ufrx-xu-119" value="&lt;p style=&quot;margin: 0px ; margin-top: 4px ; text-align: center ; text-decoration: underline&quot;&gt;&lt;/p&gt;&lt;p style=&quot;margin: 0px ; margin-left: 8px&quot;&gt;&lt;br&gt;&lt;/p&gt;&lt;p style=&quot;margin: 0px ; margin-left: 8px&quot;&gt;Customer Servicer&lt;/p&gt;&lt;p style=&quot;margin: 0px ; margin-left: 8px&quot;&gt;&lt;/p&gt;&lt;div style=&quot;text-align: justify&quot;&gt;&lt;br&gt;&lt;/div&gt;&lt;div style=&quot;text-align: justify&quot;&gt;&amp;nbsp;Roles:&lt;/div&gt;&lt;div style=&quot;text-align: justify&quot;&gt;&lt;span style=&quot;white-space: pre&quot;&gt;&#9;- answer customer&lt;/span&gt;&lt;br&gt;&lt;/div&gt;&lt;div style=&quot;text-align: justify&quot;&gt;&lt;span style=&quot;white-space: pre&quot;&gt;&lt;span style=&quot;white-space: pre&quot;&gt;&#9;- escalate&lt;/span&gt;&lt;br&gt;&lt;/span&gt;&lt;/div&gt;&lt;p&gt;&lt;/p&gt;&lt;p&gt;&lt;/p&gt;" style="verticalAlign=middle;align=center;overflow=fill;fontSize=12;fontFamily=Helvetica;html=1;rounded=1;fontStyle=1;strokeWidth=3;fillColor=#ffe6cc;spacingLeft=2;strokeColor=#d79b00;fontColor=none;noLabel=1;" parent="1" vertex="1">
                    <mxGeometry x="194" y="773" width="180" height="90" as="geometry"/>
                </mxCell>
                <mxCell id="cOc1v8Od7rdK0ufrx-xu-120" value="&lt;p style=&quot;margin: 0px ; margin-top: 4px ; text-align: center ; text-decoration: underline&quot;&gt;&lt;/p&gt;&lt;p style=&quot;margin: 0px ; margin-left: 8px&quot;&gt;&lt;br&gt;&lt;/p&gt;&lt;p style=&quot;margin: 0px ; margin-left: 8px&quot;&gt;Customer Servicer&lt;/p&gt;&lt;p style=&quot;margin: 0px ; margin-left: 8px&quot;&gt;&lt;/p&gt;&lt;div style=&quot;text-align: justify&quot;&gt;&lt;br&gt;&lt;/div&gt;&lt;div style=&quot;text-align: justify&quot;&gt;&amp;nbsp;Roles:&lt;/div&gt;&lt;div style=&quot;text-align: justify&quot;&gt;&lt;span style=&quot;white-space: pre&quot;&gt;&#9;- answer customer&lt;/span&gt;&lt;br&gt;&lt;/div&gt;&lt;div style=&quot;text-align: justify&quot;&gt;&lt;span style=&quot;white-space: pre&quot;&gt;&lt;span style=&quot;white-space: pre&quot;&gt;&#9;- escalate&lt;/span&gt;&lt;br&gt;&lt;/span&gt;&lt;/div&gt;&lt;p&gt;&lt;/p&gt;&lt;p&gt;&lt;/p&gt;" style="verticalAlign=middle;align=center;overflow=fill;fontSize=12;fontFamily=Helvetica;html=1;rounded=1;fontStyle=1;strokeWidth=3;fillColor=#ffe6cc;spacingLeft=2;strokeColor=#d79b00;fontColor=none;noLabel=1;" parent="1" vertex="1">
                    <mxGeometry x="204" y="783" width="180" height="90" as="geometry"/>
                </mxCell>
                <mxCell id="cOc1v8Od7rdK0ufrx-xu-121" value="&lt;p style=&quot;margin: 0px ; margin-top: 4px ; text-align: center ; text-decoration: underline&quot;&gt;&lt;/p&gt;&lt;p style=&quot;margin: 0px ; margin-left: 8px&quot;&gt;&lt;br&gt;&lt;/p&gt;&lt;p style=&quot;margin: 0px ; margin-left: 8px&quot;&gt;Customer Servicer&lt;/p&gt;&lt;p style=&quot;margin: 0px ; margin-left: 8px&quot;&gt;&lt;/p&gt;&lt;div style=&quot;text-align: justify&quot;&gt;&lt;br&gt;&lt;/div&gt;&lt;div style=&quot;text-align: justify&quot;&gt;&amp;nbsp;Roles:&lt;/div&gt;&lt;div style=&quot;text-align: justify&quot;&gt;&lt;span style=&quot;white-space: pre&quot;&gt;&#9;- answer customer&lt;/span&gt;&lt;br&gt;&lt;/div&gt;&lt;div style=&quot;text-align: justify&quot;&gt;&lt;span style=&quot;white-space: pre&quot;&gt;&lt;span style=&quot;white-space: pre&quot;&gt;&#9;- escalate&lt;/span&gt;&lt;br&gt;&lt;/span&gt;&lt;/div&gt;&lt;p&gt;&lt;/p&gt;&lt;p&gt;&lt;/p&gt;" style="verticalAlign=middle;align=center;overflow=fill;fontSize=12;fontFamily=Helvetica;html=1;rounded=1;fontStyle=1;strokeWidth=3;fillColor=#ffe6cc;spacingLeft=2;strokeColor=#d79b00;fontColor=#000000;" parent="1" vertex="1">
                    <mxGeometry x="214" y="793" width="180" height="90" as="geometry"/>
                </mxCell>
                <mxCell id="6" value="&lt;p style=&quot;margin: 0px ; margin-top: 4px ; text-align: center ; text-decoration: underline&quot;&gt;&lt;/p&gt;&lt;p style=&quot;margin: 0px ; margin-left: 8px&quot;&gt;&lt;br&gt;&lt;/p&gt;&lt;p style=&quot;margin: 0px ; margin-left: 8px&quot;&gt;Master / Poller /&lt;/p&gt;&lt;p style=&quot;margin: 0px ; margin-left: 8px&quot;&gt;Coordinator / Load Balancer&lt;/p&gt;&lt;p style=&quot;margin: 0px ; margin-left: 8px&quot;&gt;&lt;/p&gt;&lt;div style=&quot;text-align: left&quot;&gt;&amp;nbsp;Roles:&lt;/div&gt;&lt;div style=&quot;text-align: left&quot;&gt;&lt;span style=&quot;white-space: pre&quot;&gt;&#9;-define priorities&lt;/span&gt;&lt;br&gt;&lt;/div&gt;&lt;div style=&quot;text-align: left&quot;&gt;&lt;span style=&quot;white-space: pre&quot;&gt;&#9;-scale events&lt;/span&gt;&lt;br&gt;&lt;/div&gt;&lt;div style=&quot;text-align: left&quot;&gt;&lt;span style=&quot;white-space: pre&quot;&gt;&lt;span style=&quot;white-space: pre&quot;&gt;&#9;-spawn other services&lt;/span&gt;&lt;/span&gt;&lt;/div&gt;&lt;p&gt;&lt;/p&gt;" style="verticalAlign=middle;align=center;overflow=fill;fontSize=12;fontFamily=Helvetica;html=1;rounded=1;fontStyle=1;strokeWidth=3;fillColor=#E6FFCC;spacingLeft=2;fontColor=#000000;" parent="1" vertex="1">
                    <mxGeometry x="90" y="390" width="190" height="130" as="geometry"/>
                </mxCell>
                <mxCell id="cOc1v8Od7rdK0ufrx-xu-124" value="" style="edgeStyle=elbowEdgeStyle;elbow=horizontal;strokeColor=#990000;strokeWidth=2;startArrow=classic;startFill=1;exitX=0.5;exitY=0;exitDx=0;exitDy=0;entryX=1;entryY=0.5;entryDx=0;entryDy=0;labelBorderColor=default;endArrow=none;endFill=0;" parent="1" source="cOc1v8Od7rdK0ufrx-xu-123" target="6" edge="1">
                    <mxGeometry width="100" height="100" relative="1" as="geometry">
                        <mxPoint x="175" y="530" as="sourcePoint"/>
                        <mxPoint x="160" y="660" as="targetPoint"/>
                        <Array as="points">
                            <mxPoint x="300" y="590"/>
                            <mxPoint x="150" y="270"/>
                            <mxPoint x="370" y="330"/>
                            <mxPoint x="260" y="480"/>
                        </Array>
                    </mxGeometry>
                </mxCell>
                <mxCell id="cOc1v8Od7rdK0ufrx-xu-125" value="" style="edgeStyle=elbowEdgeStyle;elbow=vertical;strokeColor=#962C2C;strokeWidth=2;startArrow=classic;startFill=1;exitX=1;exitY=0.5;exitDx=0;exitDy=0;labelBorderColor=default;endArrow=classic;endFill=1;" parent="1" edge="1">
                    <mxGeometry width="100" height="100" relative="1" as="geometry">
                        <mxPoint x="446" y="340" as="sourcePoint"/>
                        <mxPoint x="397" y="730" as="targetPoint"/>
                        <Array as="points">
                            <mxPoint x="417" y="570"/>
                        </Array>
                    </mxGeometry>
                </mxCell>
            </root>
        </mxGraphModel>
    </diagram>
</mxfile>